<svg width="175" height="211" viewBox="0 0 175 211" fill="none" xmlns="http://www.w3.org/2000/svg">
<g filter="url(#filter0_d_1_158)">
<path d="M122.062 87.7627C122.062 68.7911 106.679 53.4308 87.7305 53.4308C68.7823 53.4308 53.3986 68.8145 53.3986 87.7627C53.3986 106.711 87.7305 157.107 87.7305 157.107C87.7305 157.107 122.062 106.711 122.062 87.7627Z" fill="url(#paint0_linear_1_158)"/>
<path d="M87.7071 52.2347C68.1257 52.2347 52.2026 68.1578 52.2026 87.7392C52.2026 107.321 85.3386 155.676 86.7456 157.763L87.7071 159.194L88.6686 157.763C90.0756 155.7 123.212 106.852 123.212 87.7392C123.212 68.6268 107.289 52.2347 87.7071 52.2347ZM87.7071 154.996C82.1493 146.648 54.5477 104.366 54.5477 87.7392C54.5477 69.4476 69.439 54.5798 87.7071 54.5798C105.975 54.5798 120.866 69.4711 120.866 87.7392C120.866 104.366 93.2649 146.624 87.7071 154.996Z" fill="url(#paint1_linear_1_158)"/>
</g>
<path d="M118.076 87.7627C118.076 70.9954 104.474 57.4174 87.7306 57.4174C70.9867 57.4174 57.3853 71.0189 57.3853 87.7627C57.3853 104.507 70.9867 118.108 87.7306 118.108C104.474 118.108 118.076 104.507 118.076 87.7627Z" fill="url(#paint2_linear_1_158)"/>
<path d="M113.925 87.7628C113.925 73.2936 102.2 61.5683 87.7308 61.5683C73.2616 61.5683 61.5363 73.2936 61.5363 87.7628C61.5363 102.232 73.2616 113.957 87.7308 113.957C102.2 113.957 113.925 102.232 113.925 87.7628Z" fill="#1C1D6E"/>
<defs>
<filter id="filter0_d_1_158" x="0.774063" y="0.806168" width="173.866" height="209.816" filterUnits="userSpaceOnUse" color-interpolation-filters="sRGB">
<feFlood flood-opacity="0" result="BackgroundImageFix"/>
<feColorMatrix in="SourceAlpha" type="matrix" values="0 0 0 0 0 0 0 0 0 0 0 0 0 0 0 0 0 0 127 0" result="hardAlpha"/>
<feOffset/>
<feGaussianBlur stdDeviation="25.7143"/>
<feComposite in2="hardAlpha" operator="out"/>
<feColorMatrix type="matrix" values="0 0 0 0 0.0555556 0 0 0 0 0.0666667 0 0 0 0 0.333333 0 0 0 0.5 0"/>
<feBlend mode="normal" in2="BackgroundImageFix" result="effect1_dropShadow_1_158"/>
<feBlend mode="normal" in="SourceGraphic" in2="effect1_dropShadow_1_158" result="shape"/>
</filter>
<linearGradient id="paint0_linear_1_158" x1="72.8063" y1="150.708" x2="115.288" y2="71.2037" gradientUnits="userSpaceOnUse">
<stop stop-color="#5977C4"/>
<stop offset="1" stop-color="#54268D"/>
</linearGradient>
<linearGradient id="paint1_linear_1_158" x1="61.8736" y1="128.675" x2="117.307" y2="73.7141" gradientUnits="userSpaceOnUse">
<stop stop-color="#789CD2"/>
<stop offset="0.48" stop-color="#403EA6"/>
<stop offset="1" stop-color="#3E1E72"/>
</linearGradient>
<linearGradient id="paint2_linear_1_158" x1="65.651" y1="100.791" x2="94.7353" y2="57.3555" gradientUnits="userSpaceOnUse">
<stop stop-color="#789CD2"/>
<stop offset="0.48" stop-color="#403EA6"/>
<stop offset="1" stop-color="#3E1E72"/>
</linearGradient>
</defs>
</svg>
